<svg width="24" height="24" viewBox="0 0 24 24" fill="none" xmlns="http://www.w3.org/2000/svg">
<path d="M7.40061 5.55269C7.30834 5.3977 7.17739 5.26934 7.02058 5.1802C6.86377 5.09106 6.68649 5.04419 6.50611 5.04419C6.32573 5.04419 6.14845 5.09106 5.99164 5.1802C5.83483 5.26934 5.70388 5.3977 5.61161 5.55269L0.111609 16.5527C0.0516945 16.6703 0.0156504 16.7986 0.00555468 16.9302C-0.00454107 17.0618 0.0115112 17.1941 0.052786 17.3194C0.0940608 17.4448 0.159742 17.5607 0.246042 17.6606C0.332341 17.7604 0.437553 17.8422 0.555611 17.9012C0.673669 17.9602 0.802237 17.9952 0.933902 18.0043C1.06557 18.0134 1.19773 17.9963 1.32276 17.954C1.44779 17.9118 1.56322 17.8452 1.6624 17.7581C1.76158 17.6711 1.84253 17.5652 1.90061 17.4467L3.61961 13.9997H9.38361L11.1076 17.4467C11.1657 17.5652 11.2466 17.6711 11.3458 17.7581C11.445 17.8452 11.5604 17.9118 11.6855 17.954C11.8105 17.9963 11.9426 18.0134 12.0743 18.0043C12.206 17.9952 12.3345 17.9602 12.4526 17.9012C12.5707 17.8422 12.6759 17.7604 12.7622 17.6606C12.8485 17.5607 12.9142 17.4448 12.9554 17.3194C12.9967 17.1941 13.0128 17.0618 13.0027 16.9302C12.9926 16.7986 12.9565 16.6703 12.8966 16.5527L7.40061 5.55269ZM4.61961 11.9997L6.50061 8.2357L8.38361 11.9997H4.61961Z" fill="white"/>
<path d="M22.9999 7.99976C22.7347 7.99976 22.4803 8.10511 22.2928 8.29265C22.1053 8.48019 21.9999 8.73454 21.9999 8.99976V9.02576C21.1395 8.36395 20.0854 8.00343 18.9999 7.99976C17.6738 7.99976 16.4021 8.52654 15.4644 9.46422C14.5267 10.4019 13.9999 11.6737 13.9999 12.9998C13.9999 14.3258 14.5267 15.5976 15.4644 16.5353C16.4021 17.473 17.6738 17.9998 18.9999 17.9998C20.0854 17.9961 21.1395 17.6356 21.9999 16.9738V16.9998C21.9999 17.265 22.1053 17.5193 22.2928 17.7069C22.4803 17.8944 22.7347 17.9998 22.9999 17.9998C23.2651 17.9998 23.5195 17.8944 23.707 17.7069C23.8946 17.5193 23.9999 17.265 23.9999 16.9998V8.99976C23.9999 8.73454 23.8946 8.48019 23.707 8.29265C23.5195 8.10511 23.2651 7.99976 22.9999 7.99976ZM18.9999 15.9998C18.4066 15.9998 17.8266 15.8238 17.3332 15.4942C16.8399 15.1645 16.4554 14.696 16.2283 14.1478C16.0012 13.5996 15.9418 12.9964 16.0576 12.4145C16.1733 11.8325 16.4591 11.298 16.8786 10.8784C17.2982 10.4589 17.8327 10.1732 18.4147 10.0574C18.9966 9.94164 19.5998 10.0011 20.148 10.2281C20.6961 10.4552 21.1647 10.8397 21.4943 11.333C21.824 11.8264 21.9999 12.4064 21.9999 12.9998C21.9999 13.7954 21.6838 14.5585 21.1212 15.1211C20.5586 15.6837 19.7956 15.9998 18.9999 15.9998Z" fill="white"/>
</svg>
