<svg width="24" height="24" viewBox="0 0 24 24" fill="none" xmlns="http://www.w3.org/2000/svg">
<path d="M7.40061 5.55245C7.30834 5.39746 7.17739 5.2691 7.02058 5.17996C6.86377 5.09081 6.68649 5.04395 6.50611 5.04395C6.32573 5.04395 6.14845 5.09081 5.99164 5.17996C5.83483 5.2691 5.70388 5.39746 5.61161 5.55245L0.111609 16.5525C0.0516945 16.67 0.0156504 16.7983 0.00555468 16.9299C-0.00454107 17.0615 0.0115112 17.1938 0.052786 17.3192C0.0940608 17.4445 0.159742 17.5605 0.246042 17.6603C0.332341 17.7602 0.437553 17.842 0.555611 17.901C0.673669 17.9599 0.802237 17.995 0.933902 18.0041C1.06557 18.0131 1.19773 17.996 1.32276 17.9538C1.44779 17.9115 1.56322 17.845 1.6624 17.7579C1.76158 17.6708 1.84253 17.565 1.90061 17.4465L3.61961 13.9995H9.38361L11.1076 17.4465C11.1657 17.565 11.2466 17.6708 11.3458 17.7579C11.445 17.845 11.5604 17.9115 11.6855 17.9538C11.8105 17.996 11.9426 18.0131 12.0743 18.0041C12.206 17.995 12.3345 17.9599 12.4526 17.901C12.5707 17.842 12.6759 17.7602 12.7622 17.6603C12.8485 17.5605 12.9142 17.4445 12.9554 17.3192C12.9967 17.1938 13.0128 17.0615 13.0027 16.9299C12.9926 16.7983 12.9565 16.67 12.8966 16.5525L7.40061 5.55245ZM4.61961 11.9995L6.50061 8.23545L8.38361 11.9995H4.61961Z" fill="#CE0037"/>
<path d="M22.9999 7.99951C22.7347 7.99951 22.4803 8.10487 22.2928 8.29241C22.1053 8.47994 21.9999 8.7343 21.9999 8.99951V9.02551C21.1395 8.36371 20.0854 8.00319 18.9999 7.99951C17.6738 7.99951 16.4021 8.5263 15.4644 9.46398C14.5267 10.4017 13.9999 11.6734 13.9999 12.9995C13.9999 14.3256 14.5267 15.5974 15.4644 16.535C16.4021 17.4727 17.6738 17.9995 18.9999 17.9995C20.0854 17.9958 21.1395 17.6353 21.9999 16.9735V16.9995C21.9999 17.2647 22.1053 17.5191 22.2928 17.7066C22.4803 17.8942 22.7347 17.9995 22.9999 17.9995C23.2651 17.9995 23.5195 17.8942 23.707 17.7066C23.8946 17.5191 23.9999 17.2647 23.9999 16.9995V8.99951C23.9999 8.7343 23.8946 8.47994 23.707 8.29241C23.5195 8.10487 23.2651 7.99951 22.9999 7.99951ZM18.9999 15.9995C18.4066 15.9995 17.8266 15.8236 17.3332 15.4939C16.8399 15.1643 16.4554 14.6957 16.2283 14.1476C16.0012 13.5994 15.9418 12.9962 16.0576 12.4142C16.1733 11.8323 16.4591 11.2977 16.8786 10.8782C17.2982 10.4586 17.8327 10.1729 18.4147 10.0572C18.9966 9.9414 19.5998 10.0008 20.148 10.2279C20.6961 10.4549 21.1647 10.8395 21.4943 11.3328C21.824 11.8261 21.9999 12.4062 21.9999 12.9995C21.9999 13.7952 21.6838 14.5582 21.1212 15.1208C20.5586 15.6834 19.7956 15.9995 18.9999 15.9995Z" fill="#CE0037"/>
</svg>
