<svg width="40" height="40" viewBox="0 0 40 40" fill="none" xmlns="http://www.w3.org/2000/svg">
<g clip-path="url(#clip0_49_2532)">
<path d="M30.0007 31.6661C30.3303 31.666 30.6524 31.5682 30.9265 31.3851C31.2005 31.2019 31.414 30.9417 31.5402 30.6372C31.6663 30.3327 31.6993 29.9976 31.635 29.6744C31.5707 29.3511 31.4121 29.0542 31.179 28.8211L20.8924 18.5361C19.3296 16.9738 17.2104 16.0962 15.0007 16.0962C12.791 16.0962 10.6718 16.9738 9.10903 18.5361L5.48903 22.1544C5.18544 22.4687 5.01744 22.8898 5.02124 23.3267C5.02504 23.7637 5.20032 24.1818 5.50933 24.4908C5.81835 24.7998 6.23637 24.9751 6.67336 24.9789C7.11036 24.9827 7.53136 24.8147 7.8457 24.5111L11.4657 20.8927C12.4177 19.983 13.6839 19.4753 15.0007 19.4753C16.3175 19.4753 17.5837 19.983 18.5357 20.8927L28.8224 31.1777C29.1349 31.4903 29.5587 31.666 30.0007 31.6661Z" fill="#CE0037"/>
<path d="M26.6666 17.4992C27.8204 17.4992 28.9482 17.1571 29.9075 16.5161C30.8668 15.8751 31.6144 14.9641 32.0559 13.8982C32.4975 12.8323 32.613 11.6594 32.3879 10.5278C32.1628 9.39627 31.6072 8.35687 30.7914 7.54107C29.9756 6.72526 28.9362 6.16969 27.8047 5.94461C26.6731 5.71953 25.5002 5.83505 24.4343 6.27656C23.3684 6.71807 22.4574 7.46574 21.8164 8.42503C21.1754 9.38432 20.8333 10.5121 20.8333 11.6659C20.8333 13.213 21.4479 14.6967 22.5419 15.7906C23.6358 16.8846 25.1196 17.4992 26.6666 17.4992V17.4992ZM26.6666 9.16586C27.1611 9.16586 27.6444 9.31248 28.0556 9.58718C28.4667 9.86189 28.7871 10.2523 28.9763 10.7091C29.1656 11.166 29.2151 11.6686 29.1186 12.1536C29.0221 12.6385 28.784 13.084 28.4344 13.4336C28.0848 13.7833 27.6393 14.0214 27.1544 14.1178C26.6694 14.2143 26.1668 14.1648 25.7099 13.9756C25.2531 13.7863 24.8627 13.4659 24.588 13.0548C24.3133 12.6437 24.1666 12.1603 24.1666 11.6659C24.1666 11.0028 24.43 10.3669 24.8989 9.89809C25.3677 9.42925 26.0036 9.16586 26.6666 9.16586V9.16586Z" fill="#CE0037"/>
<path d="M38.3333 26.667C37.8913 26.667 37.4674 26.8426 37.1548 27.1551C36.8423 27.4677 36.6667 27.8916 36.6667 28.3337V31.667C36.6667 32.9931 36.1399 34.2648 35.2022 35.2025C34.2645 36.1402 32.9928 36.667 31.6667 36.667H28.3334C27.8913 36.667 27.4674 36.8426 27.1548 37.1551C26.8423 37.4677 26.6667 37.8916 26.6667 38.3336C26.6667 38.7757 26.8423 39.1996 27.1548 39.5121C27.4674 39.8247 27.8913 40.0003 28.3334 40.0003H31.6667C33.876 39.9977 35.9941 39.1188 37.5563 37.5566C39.1185 35.9944 39.9973 33.8763 40 31.667V28.3337C40 27.8916 39.8244 27.4677 39.5118 27.1551C39.1993 26.8426 38.7754 26.667 38.3333 26.667Z" fill="#CE0037"/>
<path d="M1.66667 13.3333C2.10869 13.3333 2.53262 13.1577 2.84518 12.8452C3.15774 12.5326 3.33333 12.1087 3.33333 11.6667V8.33333C3.33333 7.00725 3.86012 5.73548 4.7978 4.7978C5.73548 3.86012 7.00725 3.33333 8.33333 3.33333H11.6667C12.1087 3.33333 12.5326 3.15774 12.8452 2.84518C13.1577 2.53262 13.3333 2.10869 13.3333 1.66667C13.3333 1.22464 13.1577 0.800716 12.8452 0.488155C12.5326 0.175595 12.1087 0 11.6667 0L8.33333 0C6.12401 0.00264643 4.00593 0.88147 2.4437 2.4437C0.88147 4.00593 0.00264643 6.12401 0 8.33333L0 11.6667C0 12.1087 0.175595 12.5326 0.488155 12.8452C0.800716 13.1577 1.22464 13.3333 1.66667 13.3333Z" fill="#CE0037"/>
<path d="M11.6667 36.667H8.33333C7.00725 36.667 5.73548 36.1402 4.7978 35.2025C3.86012 34.2648 3.33333 32.9931 3.33333 31.667V28.3337C3.33333 27.8916 3.15774 27.4677 2.84518 27.1551C2.53262 26.8426 2.10869 26.667 1.66667 26.667C1.22464 26.667 0.800716 26.8426 0.488155 27.1551C0.175595 27.4677 0 27.8916 0 28.3337L0 31.667C0.00264643 33.8763 0.88147 35.9944 2.4437 37.5566C4.00593 39.1188 6.12401 39.9977 8.33333 40.0003H11.6667C12.1087 40.0003 12.5326 39.8247 12.8452 39.5121C13.1577 39.1996 13.3333 38.7757 13.3333 38.3336C13.3333 37.8916 13.1577 37.4677 12.8452 37.1551C12.5326 36.8426 12.1087 36.667 11.6667 36.667Z" fill="#CE0037"/>
<path d="M31.6667 0H28.3334C27.8913 0 27.4674 0.175595 27.1548 0.488155C26.8423 0.800716 26.6667 1.22464 26.6667 1.66667C26.6667 2.10869 26.8423 2.53262 27.1548 2.84518C27.4674 3.15774 27.8913 3.33333 28.3334 3.33333H31.6667C32.9928 3.33333 34.2645 3.86012 35.2022 4.7978C36.1399 5.73548 36.6667 7.00725 36.6667 8.33333V11.6667C36.6667 12.1087 36.8423 12.5326 37.1548 12.8452C37.4674 13.1577 37.8913 13.3333 38.3333 13.3333C38.7754 13.3333 39.1993 13.1577 39.5118 12.8452C39.8244 12.5326 40 12.1087 40 11.6667V8.33333C39.9973 6.12401 39.1185 4.00593 37.5563 2.4437C35.9941 0.88147 33.876 0.00264643 31.6667 0V0Z" fill="#CE0037"/>
</g>
<defs>
<clipPath id="clip0_49_2532">
<rect width="40" height="40" fill="white"/>
</clipPath>
</defs>
</svg>
