<svg width="40" height="40" viewBox="0 0 40 40" fill="none" xmlns="http://www.w3.org/2000/svg">
<g clip-path="url(#clip0_49_2527)">
<path d="M31.667 0H8.33364C6.12431 0.00264643 4.00623 0.88147 2.444 2.4437C0.881775 4.00593 0.00295161 6.12401 0.000305176 8.33333L0.000305176 31.6667C0.00295161 33.876 0.881775 35.9941 2.444 37.5563C4.00623 39.1185 6.12431 39.9974 8.33364 40H31.667C33.8763 39.9974 35.9944 39.1185 37.5566 37.5563C39.1188 35.9941 39.9977 33.876 40.0003 31.6667V8.33333C39.9977 6.12401 39.1188 4.00593 37.5566 2.4437C35.9944 0.88147 33.8763 0.00264643 31.667 0V0ZM8.33364 3.33333H31.667C32.9931 3.33333 34.2648 3.86012 35.2025 4.7978C36.1402 5.73548 36.667 7.00725 36.667 8.33333V31.6667C36.6641 32.4091 36.4932 33.1413 36.167 33.8083L20.8953 18.5367C20.1215 17.7626 19.2027 17.1486 18.1915 16.7297C17.1803 16.3107 16.0965 16.0951 15.002 16.0951C13.9074 16.0951 12.8236 16.3107 11.8124 16.7297C10.8012 17.1486 9.88249 17.7626 9.10864 18.5367L3.33364 24.31V8.33333C3.33364 7.00725 3.86042 5.73548 4.7981 4.7978C5.73579 3.86012 7.00756 3.33333 8.33364 3.33333V3.33333ZM8.33364 36.6667C7.00756 36.6667 5.73579 36.1399 4.7981 35.2022C3.86042 34.2645 3.33364 32.9927 3.33364 31.6667V29.0233L11.4636 20.8933C11.928 20.4287 12.4793 20.0601 13.0861 19.8086C13.693 19.5572 14.3434 19.4277 15.0003 19.4277C15.6572 19.4277 16.3076 19.5572 16.9145 19.8086C17.5213 20.0601 18.0726 20.4287 18.537 20.8933L33.8086 36.1667C33.1416 36.4929 32.4094 36.6638 31.667 36.6667H8.33364Z" fill="#CE0037"/>
<path d="M26.667 17.4992C27.8207 17.4992 28.9486 17.1571 29.9078 16.5161C30.8671 15.8751 31.6148 14.9641 32.0563 13.8982C32.4978 12.8323 32.6133 11.6594 32.3883 10.5278C32.1632 9.39627 31.6076 8.35687 30.7918 7.54107C29.976 6.72526 28.9366 6.16969 27.805 5.94461C26.6735 5.71953 25.5006 5.83505 24.4347 6.27656C23.3688 6.71807 22.4577 7.46574 21.8168 8.42503C21.1758 9.38432 20.8337 10.5121 20.8337 11.6659C20.8337 13.213 21.4483 14.6967 22.5422 15.7906C23.6362 16.8846 25.1199 17.4992 26.667 17.4992V17.4992ZM26.667 9.16586C27.1615 9.16586 27.6448 9.31248 28.0559 9.58718C28.4671 9.86189 28.7875 10.2523 28.9767 10.7091C29.1659 11.166 29.2154 11.6686 29.119 12.1536C29.0225 12.6385 28.7844 13.084 28.4348 13.4336C28.0851 13.7833 27.6397 14.0214 27.1547 14.1178C26.6698 14.2143 26.1671 14.1648 25.7103 13.9756C25.2535 13.7863 24.863 13.4659 24.5883 13.0548C24.3136 12.6437 24.167 12.1603 24.167 11.6659C24.167 11.0028 24.4304 10.3669 24.8992 9.89809C25.3681 9.42925 26.004 9.16586 26.667 9.16586V9.16586Z" fill="#CE0037"/>
</g>
<defs>
<clipPath id="clip0_49_2527">
<rect width="40" height="40" fill="white"/>
</clipPath>
</defs>
</svg>
