<svg width="40" height="40" viewBox="0 0 40 40" fill="none" xmlns="http://www.w3.org/2000/svg">
<path d="M15.5553 26.532L9.02366 20.0003C8.71111 19.6879 8.28727 19.5123 7.84533 19.5123C7.40339 19.5123 6.97954 19.6879 6.66699 20.0003C6.35454 20.3129 6.17902 20.7367 6.17902 21.1787C6.17902 21.6206 6.35454 22.0444 6.66699 22.357L13.1987 28.8886C13.5082 29.1983 13.8757 29.444 14.2802 29.6116C14.6847 29.7792 15.1183 29.8654 15.5562 29.8654C15.994 29.8654 16.4276 29.7792 16.8321 29.6116C17.2366 29.444 17.6041 29.1983 17.9137 28.8886L33.3337 13.4687C33.6461 13.1561 33.8216 12.7323 33.8216 12.2903C33.8216 11.8484 33.6461 11.4245 33.3337 11.112V11.112C33.0211 10.7995 32.5973 10.624 32.1553 10.624C31.7134 10.624 31.2895 10.7995 30.977 11.112L15.5553 26.532Z" fill="white"/>
</svg>
