<svg width="40" height="40" viewBox="0 0 40 40" fill="none" xmlns="http://www.w3.org/2000/svg">
<path d="M17.6665 21.1834C17.5102 21.0284 17.3862 20.8441 17.3016 20.641C17.217 20.4379 17.1735 20.22 17.1735 20C17.1735 19.78 17.217 19.5622 17.3016 19.3591C17.3862 19.156 17.5102 18.9716 17.6665 18.8167L25.3165 11.1834C25.4727 11.0284 25.5967 10.8441 25.6813 10.641C25.7659 10.4379 25.8095 10.22 25.8095 10C25.8095 9.78 25.7659 9.56216 25.6813 9.35906C25.5967 9.15596 25.4727 8.97162 25.3165 8.81669C25.0042 8.50627 24.5818 8.33203 24.1415 8.33203C23.7011 8.33203 23.2787 8.50627 22.9665 8.81669L15.3165 16.4667C14.3801 17.4042 13.8542 18.675 13.8542 20C13.8542 21.325 14.3801 22.5959 15.3165 23.5334L22.9665 31.1834C23.2769 31.4913 23.6959 31.6648 24.1331 31.6667C24.3525 31.668 24.5699 31.6259 24.773 31.543C24.976 31.46 25.1607 31.3378 25.3165 31.1834C25.4727 31.0284 25.5967 30.8441 25.6813 30.641C25.7659 30.4379 25.8095 30.22 25.8095 30C25.8095 29.78 25.7659 29.5622 25.6813 29.3591C25.5967 29.156 25.4727 28.9716 25.3165 28.8167L17.6665 21.1834Z" fill="#CE0037"/>
</svg>
