<svg width="24" height="24" viewBox="0 0 24 24" fill="none" xmlns="http://www.w3.org/2000/svg">
<g clip-path="url(#clip0_49_2545)">
<path d="M12.0012 1.99979C13.3277 2.00414 14.6402 2.27153 15.8626 2.78647C17.0851 3.30142 18.1934 4.05371 19.1232 4.99979H16.0012C15.736 4.99979 15.4816 5.10515 15.2941 5.29268C15.1065 5.48022 15.0012 5.73457 15.0012 5.99979C15.0012 6.26501 15.1065 6.51936 15.2941 6.7069C15.4816 6.89443 15.736 6.99979 16.0012 6.99979H20.1442C20.6366 6.99952 21.1088 6.80379 21.457 6.45559C21.8052 6.1074 22.0009 5.63521 22.0012 5.14279V0.999788C22.0012 0.734571 21.8958 0.480217 21.7083 0.292681C21.5207 0.105145 21.2664 -0.000212317 21.0012 -0.000212317V-0.000212317C20.736 -0.000212317 20.4816 0.105145 20.2941 0.292681C20.1065 0.480217 20.0012 0.734571 20.0012 0.999788V3.07779C18.3483 1.58924 16.3138 0.590197 14.1253 0.192537C11.9368 -0.205124 9.6808 0.0142996 7.60996 0.826235C5.53912 1.63817 3.73519 3.01056 2.40019 4.78971C1.06519 6.56886 0.251821 8.68453 0.0511791 10.8998C0.0382624 11.039 0.0544948 11.1795 0.098842 11.3121C0.143189 11.4447 0.214679 11.5667 0.308755 11.6702C0.402832 11.7737 0.517433 11.8564 0.645257 11.9132C0.773081 11.9699 0.911324 11.9994 1.05118 11.9998V11.9998C1.29577 12.0029 1.53271 11.9146 1.71564 11.7522C1.89856 11.5898 2.01429 11.365 2.04018 11.1218C2.26279 8.63254 3.40815 6.31649 5.25126 4.62863C7.09437 2.94076 9.502 2.00308 12.0012 1.99979Z" fill="black"/>
<path d="M22.9502 12.0001C22.7056 11.997 22.4687 12.0852 22.2857 12.2476C22.1028 12.41 21.9871 12.6348 21.9612 12.8781C21.7959 14.7813 21.0881 16.5972 19.9219 18.1103C18.7556 19.6234 17.1798 20.7702 15.3814 21.4147C13.5829 22.0591 11.6374 22.1742 9.77556 21.7462C7.91371 21.3182 6.2137 20.3652 4.87721 19.0001H7.99921C8.26442 19.0001 8.51878 18.8947 8.70631 18.7072C8.89385 18.5197 8.99921 18.2653 8.99921 18.0001C8.99921 17.7349 8.89385 17.4805 8.70631 17.293C8.51878 17.1054 8.26442 17.0001 7.99921 17.0001H3.85621C3.61231 17 3.37077 17.0479 3.14541 17.1412C2.92005 17.2345 2.71528 17.3712 2.54282 17.5437C2.37035 17.7162 2.23357 17.9209 2.14029 18.1463C2.04702 18.3717 1.99908 18.6132 1.99921 18.8571V23.0001C1.99921 23.2653 2.10456 23.5197 2.2921 23.7072C2.47964 23.8948 2.73399 24.0001 2.99921 24.0001C3.26442 24.0001 3.51878 23.8948 3.70631 23.7072C3.89385 23.5197 3.99921 23.2653 3.99921 23.0001V20.9221C5.65204 22.4107 7.68662 23.4097 9.87511 23.8074C12.0636 24.205 14.3196 23.9856 16.3904 23.1737C18.4613 22.3617 20.2652 20.9893 21.6002 19.2102C22.9352 17.431 23.7486 15.3153 23.9492 13.1001C23.9621 12.9608 23.9459 12.8204 23.9015 12.6878C23.8572 12.5551 23.7857 12.4332 23.6916 12.3297C23.5976 12.2262 23.483 12.1435 23.3551 12.0867C23.2273 12.03 23.0891 12.0005 22.9492 12.0001H22.9502Z" fill="black"/>
</g>
<defs>
<clipPath id="clip0_49_2545">
<rect width="24" height="24" fill="white"/>
</clipPath>
</defs>
</svg>
