<svg width="40" height="40" viewBox="0 0 40 40" fill="none" xmlns="http://www.w3.org/2000/svg">
<g clip-path="url(#clip0_48_2076)">
<path d="M16.4644 30.2033C16.9287 30.668 17.48 31.0366 18.0869 31.288C18.6937 31.5395 19.3441 31.6689 20.001 31.6689C20.6579 31.6689 21.3083 31.5395 21.9152 31.288C22.522 31.0366 23.0734 30.668 23.5377 30.2033L28.8894 24.8517C29.1763 24.5343 29.3302 24.1188 29.3192 23.6911C29.3082 23.2634 29.1332 22.8563 28.8304 22.5541C28.5275 22.2519 28.1201 22.0777 27.6924 22.0677C27.2646 22.0576 26.8494 22.2124 26.5327 22.5L21.656 27.3783L21.6677 1.66667C21.6677 1.22464 21.4921 0.800716 21.1795 0.488155C20.867 0.175595 20.4431 0 20.001 0V0C19.559 0 19.1351 0.175595 18.8225 0.488155C18.51 0.800716 18.3344 1.22464 18.3344 1.66667L18.3194 27.3467L13.4694 22.5C13.1566 22.1875 12.7326 22.012 12.2904 22.0122C11.8483 22.0123 11.4244 22.1881 11.1119 22.5008C10.7993 22.8136 10.6239 23.2376 10.624 23.6798C10.6242 24.1219 10.8 24.5458 11.1127 24.8583L16.4644 30.2033Z" fill="#CE0037"/>
<path d="M38.3336 26.6665C37.8915 26.6665 37.4676 26.8421 37.1551 27.1547C36.8425 27.4672 36.6669 27.8911 36.6669 28.3332V34.9998C36.6669 35.4418 36.4913 35.8658 36.1788 36.1783C35.8662 36.4909 35.4423 36.6665 35.0002 36.6665H5.00024C4.55822 36.6665 4.13429 36.4909 3.82173 36.1783C3.50917 35.8658 3.33358 35.4418 3.33358 34.9998V28.3332C3.33358 27.8911 3.15798 27.4672 2.84542 27.1547C2.53286 26.8421 2.10894 26.6665 1.66691 26.6665V26.6665C1.22488 26.6665 0.80096 26.8421 0.4884 27.1547C0.175839 27.4672 0.000244141 27.8911 0.000244141 28.3332L0.000244141 34.9998C0.000244141 36.3259 0.527028 37.5977 1.46471 38.5353C2.40239 39.473 3.67416 39.9998 5.00024 39.9998H35.0002C36.3263 39.9998 37.5981 39.473 38.5358 38.5353C39.4735 37.5977 40.0002 36.3259 40.0002 34.9998V28.3332C40.0002 27.8911 39.8246 27.4672 39.5121 27.1547C39.1995 26.8421 38.7756 26.6665 38.3336 26.6665Z" fill="#CE0037"/>
</g>
<defs>
<clipPath id="clip0_48_2076">
<rect width="40" height="40" fill="white"/>
</clipPath>
</defs>
</svg>
