<svg width="40" height="40" viewBox="0 0 40 40" fill="none" xmlns="http://www.w3.org/2000/svg">
<path d="M29.9991 10.0002C29.6865 9.68773 29.2627 9.51221 28.8208 9.51221C28.3788 9.51221 27.955 9.68773 27.6424 10.0002L19.9991 17.6435L12.3558 10.0002C12.0432 9.68773 11.6194 9.51221 11.1774 9.51221C10.7355 9.51221 10.3116 9.68773 9.99909 10.0002C9.68663 10.3127 9.51111 10.7366 9.51111 11.1785C9.51111 11.6205 9.68663 12.0443 9.99909 12.3569L17.6424 20.0002L9.99909 27.6435C9.68663 27.9561 9.51111 28.3799 9.51111 28.8219C9.51111 29.2638 9.68663 29.6876 9.99909 30.0002C10.3116 30.3126 10.7355 30.4882 11.1774 30.4882C11.6194 30.4882 12.0432 30.3126 12.3558 30.0002L19.9991 22.3569L27.6424 30.0002C27.955 30.3126 28.3788 30.4882 28.8208 30.4882C29.2627 30.4882 29.6865 30.3126 29.9991 30.0002C30.3115 29.6876 30.4871 29.2638 30.4871 28.8219C30.4871 28.3799 30.3115 27.9561 29.9991 27.6435L22.3558 20.0002L29.9991 12.3569C30.3115 12.0443 30.4871 11.6205 30.4871 11.1785C30.4871 10.7366 30.3115 10.3127 29.9991 10.0002V10.0002Z" fill="white"/>
</svg>
