<svg width="120" height="120" viewBox="0 0 120 120" fill="none" xmlns="http://www.w3.org/2000/svg">
<g clip-path="url(#clip0_1_409)">
<path d="M120 40.001V90.001C119.992 96.629 117.356 102.983 112.669 107.67C107.982 112.357 101.628 114.993 95 115.001H25C18.372 114.993 12.0178 112.357 7.3311 107.67C2.64441 102.983 0.00793929 96.629 0 90.001L0 30.001C0.00793929 23.373 2.64441 17.0188 7.3311 12.3321C12.0178 7.64539 18.372 5.00892 25 5.00098H37.64C39.967 5.00291 42.262 5.5437 44.345 6.58098L60.125 14.501C60.8222 14.8356 61.5867 15.0066 62.36 15.001H95C101.628 15.0089 107.982 17.6454 112.669 22.3321C117.356 27.0188 119.992 33.373 120 40.001ZM10 30.001V35.001H109.08C108.05 32.0864 106.144 29.5614 103.623 27.7714C101.103 25.9814 98.0913 25.0138 95 25.001H62.36C60.033 24.999 57.738 24.4583 55.655 23.421L39.875 15.526C39.1798 15.1827 38.4153 15.0031 37.64 15.001H25C21.0218 15.001 17.2064 16.5813 14.3934 19.3944C11.5804 22.2074 10 26.0227 10 30.001ZM110 90.001V45.001H10V90.001C10 93.9792 11.5804 97.7945 14.3934 100.608C17.2064 103.421 21.0218 105.001 25 105.001H95C98.9782 105.001 102.794 103.421 105.607 100.608C108.42 97.7945 110 93.9792 110 90.001Z" fill="white"/>
</g>
<defs>
<clipPath id="clip0_1_409">
<rect width="120" height="120" fill="white"/>
</clipPath>
</defs>
</svg>
