<svg width="40" height="40" viewBox="0 0 40 40" fill="none" xmlns="http://www.w3.org/2000/svg">
<g clip-path="url(#clip0_49_2718)">
<path d="M1.66929 16.6668C2.58977 16.6668 3.33596 15.9206 3.33596 15.0002C3.33596 14.0797 2.58977 13.3335 1.66929 13.3335C0.748817 13.3335 0.00262451 14.0797 0.00262451 15.0002C0.00262451 15.9206 0.748817 16.6668 1.66929 16.6668Z" fill="white"/>
<path d="M8.33335 9.99983C9.25382 9.99983 10 9.25364 10 8.33317C10 7.41269 9.25382 6.6665 8.33335 6.6665C7.41288 6.6665 6.66669 7.41269 6.66669 8.33317C6.66669 9.25364 7.41288 9.99983 8.33335 9.99983Z" fill="white"/>
<path d="M1.66929 3.33333C2.58977 3.33333 3.33596 2.58714 3.33596 1.66667C3.33596 0.746192 2.58977 0 1.66929 0C0.748817 0 0.00262451 0.746192 0.00262451 1.66667C0.00262451 2.58714 0.748817 3.33333 1.66929 3.33333Z" fill="white"/>
<path d="M1.66929 38.3333C2.58977 38.3333 3.33596 37.5871 3.33596 36.6667C3.33596 35.7462 2.58977 35 1.66929 35C0.748817 35 0.00262451 35.7462 0.00262451 36.6667C0.00262451 37.5871 0.748817 38.3333 1.66929 38.3333Z" fill="white"/>
<path d="M38.3333 23.3334C39.2538 23.3334 40 22.5872 40 21.6667C40 20.7462 39.2538 20 38.3333 20C37.4129 20 36.6667 20.7462 36.6667 21.6667C36.6667 22.5872 37.4129 23.3334 38.3333 23.3334Z" fill="white"/>
<path d="M31.6693 16.6668C32.5898 16.6668 33.336 15.9206 33.336 15.0002C33.336 14.0797 32.5898 13.3335 31.6693 13.3335C30.7488 13.3335 30.0026 14.0797 30.0026 15.0002C30.0026 15.9206 30.7488 16.6668 31.6693 16.6668Z" fill="white"/>
<path d="M38.3333 9.99983C39.2538 9.99983 40 9.25364 40 8.33317C40 7.41269 39.2538 6.6665 38.3333 6.6665C37.4129 6.6665 36.6667 7.41269 36.6667 8.33317C36.6667 9.25364 37.4129 9.99983 38.3333 9.99983Z" fill="white"/>
<path d="M31.6693 3.33333C32.5898 3.33333 33.336 2.58714 33.336 1.66667C33.336 0.746192 32.5898 0 31.6693 0C30.7488 0 30.0026 0.746192 30.0026 1.66667C30.0026 2.58714 30.7488 3.33333 31.6693 3.33333Z" fill="white"/>
<path d="M23.3334 39.9998C24.2538 39.9998 25 39.2536 25 38.3332C25 37.4127 24.2538 36.6665 23.3334 36.6665C22.4129 36.6665 21.6667 37.4127 21.6667 38.3332C21.6667 39.2536 22.4129 39.9998 23.3334 39.9998Z" fill="white"/>
<path d="M26.6693 23.3334C27.5898 23.3334 28.336 22.5872 28.336 21.6667C28.336 20.7462 27.5898 20 26.6693 20C25.7488 20 25.0026 20.7462 25.0026 21.6667C25.0026 22.5872 25.7488 23.3334 26.6693 23.3334Z" fill="white"/>
<path d="M20 19.9999C20.9204 19.9999 21.6666 19.2537 21.6666 18.3332C21.6666 17.4127 20.9204 16.6665 20 16.6665C19.0795 16.6665 18.3333 17.4127 18.3333 18.3332C18.3333 19.2537 19.0795 19.9999 20 19.9999Z" fill="white"/>
<path d="M25 5C24.1159 5 23.2681 4.64881 22.6429 4.02369C22.0178 3.39857 21.6666 2.55072 21.6666 1.66667C21.6666 1.22464 21.491 0.800716 21.1785 0.488155C20.8659 0.175595 20.442 0 20 0C19.5579 0 19.134 0.175595 18.8215 0.488155C18.5089 0.800716 18.3333 1.22464 18.3333 1.66667V1.66667C18.3333 2.55072 17.9821 3.39857 17.357 4.02369C16.7319 4.64881 15.884 5 15 5C14.5579 5 14.134 5.17559 13.8215 5.48816C13.5089 5.80072 13.3333 6.22464 13.3333 6.66667C13.3333 7.10869 13.5089 7.53262 13.8215 7.84518C14.134 8.15774 14.5579 8.33333 15 8.33333V8.33333C15.884 8.33333 16.7319 8.68452 17.357 9.30964C17.9821 9.93476 18.3333 10.7826 18.3333 11.6667C18.3333 12.1087 18.5089 12.5326 18.8215 12.8452C19.134 13.1577 19.5579 13.3333 20 13.3333C20.442 13.3333 20.8659 13.1577 21.1785 12.8452C21.491 12.5326 21.6666 12.1087 21.6666 11.6667C21.6666 10.7826 22.0178 9.93476 22.6429 9.30964C23.2681 8.68452 24.1159 8.33333 25 8.33333C25.442 8.33333 25.8659 8.15774 26.1785 7.84518C26.491 7.53262 26.6666 7.10869 26.6666 6.66667C26.6666 6.22464 26.491 5.80072 26.1785 5.48816C25.8659 5.17559 25.442 5 25 5V5Z" fill="white"/>
<path d="M20.4193 25.4165C18.8722 25.4165 17.3885 24.8019 16.2945 23.708C15.2005 22.614 14.586 21.1303 14.586 19.5832C14.586 18.8096 14.2787 18.0678 13.7317 17.5208C13.1847 16.9738 12.4428 16.6665 11.6693 16.6665C10.8957 16.6665 10.1539 16.9738 9.6069 17.5208C9.05992 18.0678 8.75262 18.8096 8.75262 19.5832V19.5832C8.75262 21.1303 8.13804 22.614 7.04408 23.708C5.95012 24.8019 4.46639 25.4165 2.91929 25.4165C2.14574 25.4165 1.40388 25.7238 0.856896 26.2708C0.309915 26.8178 0.00262451 27.5596 0.00262451 28.3332C0.00262451 29.1067 0.309915 29.8486 0.856896 30.3956C1.40388 30.9425 2.14574 31.2498 2.91929 31.2498V31.2498C4.46639 31.2498 5.95012 31.8644 7.04408 32.9584C8.13804 34.0523 8.75262 35.5361 8.75262 37.0832C8.75262 37.8567 9.05992 38.5986 9.6069 39.1456C10.1539 39.6925 10.8957 39.9998 11.6693 39.9998C12.4428 39.9998 13.1847 39.6925 13.7317 39.1456C14.2787 38.5986 14.586 37.8567 14.586 37.0832C14.586 35.5361 15.2005 34.0523 16.2945 32.9584C17.3885 31.8644 18.8722 31.2498 20.4193 31.2498V31.2498C21.1928 31.2498 21.9347 30.9425 22.4817 30.3956C23.0287 29.8486 23.336 29.1067 23.336 28.3332C23.336 27.5596 23.0287 26.8178 22.4817 26.2708C21.9347 25.7238 21.1928 25.4165 20.4193 25.4165Z" fill="white"/>
<path d="M38.3333 31.6665C37.4493 31.6665 36.6014 31.3153 35.9763 30.6902C35.3512 30.0651 35 29.2172 35 28.3332C35 27.8911 34.8244 27.4672 34.5119 27.1547C34.1993 26.8421 33.7754 26.6665 33.3333 26.6665C32.8913 26.6665 32.4674 26.8421 32.1548 27.1547C31.8423 27.4672 31.6667 27.8911 31.6667 28.3332C31.6667 29.2172 31.3155 30.0651 30.6904 30.6902C30.0652 31.3153 29.2174 31.6665 28.3334 31.6665C27.8913 31.6665 27.4674 31.8421 27.1548 32.1546C26.8423 32.4672 26.6667 32.8911 26.6667 33.3332C26.6667 33.7752 26.8423 34.1991 27.1548 34.5117C27.4674 34.8242 27.8913 34.9998 28.3334 34.9998C29.2174 34.9998 30.0652 35.351 30.6904 35.9761C31.3155 36.6013 31.6667 37.4491 31.6667 38.3331C31.6667 38.7752 31.8423 39.1991 32.1548 39.5117C32.4674 39.8242 32.8913 39.9998 33.3333 39.9998C33.7754 39.9998 34.1993 39.8242 34.5119 39.5117C34.8244 39.1991 35 38.7752 35 38.3331C35 37.4491 35.3512 36.6013 35.9763 35.9761C36.6014 35.351 37.4493 34.9998 38.3333 34.9998V34.9998C38.7754 34.9998 39.1993 34.8242 39.5118 34.5117C39.8244 34.1991 40 33.7752 40 33.3332C40 32.8911 39.8244 32.4672 39.5118 32.1546C39.1993 31.8421 38.7754 31.6665 38.3333 31.6665Z" fill="white"/>
</g>
<defs>
<clipPath id="clip0_49_2718">
<rect width="40" height="40" fill="white"/>
</clipPath>
</defs>
</svg>
