<svg width="40" height="40" viewBox="0 0 40 40" fill="none" xmlns="http://www.w3.org/2000/svg">
<g clip-path="url(#clip0_49_2764)">
<path d="M16.4614 30.2033C16.9258 30.668 17.4771 31.0366 18.0839 31.288C18.6908 31.5395 19.3412 31.6689 19.9981 31.6689C20.655 31.6689 21.3054 31.5395 21.9123 31.288C22.5191 31.0366 23.0704 30.668 23.5348 30.2033L28.8864 24.8517C29.1734 24.5343 29.3273 24.1188 29.3163 23.6911C29.3053 23.2634 29.1303 22.8563 28.8274 22.5541C28.5246 22.2519 28.1171 22.0777 27.6894 22.0677C27.2617 22.0576 26.8465 22.2124 26.5298 22.5L21.6531 27.3783L21.6648 1.66667C21.6648 1.22464 21.4892 0.800716 21.1766 0.488155C20.864 0.175595 20.4401 0 19.9981 0V0C19.5561 0 19.1321 0.175595 18.8196 0.488155C18.507 0.800716 18.3314 1.22464 18.3314 1.66667L18.3164 27.3467L13.4664 22.5C13.1537 22.1875 12.7296 22.012 12.2875 22.0122C11.8454 22.0123 11.4214 22.1881 11.1089 22.5008C10.7964 22.8136 10.6209 23.2376 10.6211 23.6798C10.6213 24.1219 10.797 24.5458 11.1098 24.8583L16.4614 30.2033Z" fill="white"/>
<path d="M38.3333 26.6665C37.8913 26.6665 37.4674 26.8421 37.1548 27.1547C36.8423 27.4672 36.6667 27.8911 36.6667 28.3332V34.9998C36.6667 35.4418 36.4911 35.8658 36.1785 36.1783C35.866 36.4909 35.442 36.6665 35 36.6665H5C4.55797 36.6665 4.13405 36.4909 3.82149 36.1783C3.50893 35.8658 3.33333 35.4418 3.33333 34.9998V28.3332C3.33333 27.8911 3.15774 27.4672 2.84518 27.1547C2.53262 26.8421 2.10869 26.6665 1.66667 26.6665V26.6665C1.22464 26.6665 0.800716 26.8421 0.488155 27.1547C0.175595 27.4672 0 27.8911 0 28.3332L0 34.9998C0 36.3259 0.526784 37.5977 1.46447 38.5353C2.40215 39.473 3.67392 39.9998 5 39.9998H35C36.3261 39.9998 37.5979 39.473 38.5355 38.5353C39.4732 37.5977 40 36.3259 40 34.9998V28.3332C40 27.8911 39.8244 27.4672 39.5118 27.1547C39.1993 26.8421 38.7754 26.6665 38.3333 26.6665Z" fill="white"/>
</g>
<defs>
<clipPath id="clip0_49_2764">
<rect width="40" height="40" fill="white"/>
</clipPath>
</defs>
</svg>
