<svg width="40" height="40" viewBox="0 0 40 40" fill="none" xmlns="http://www.w3.org/2000/svg">
<g clip-path="url(#clip0_49_2522)">
<path d="M26.6663 26.6667C26.6663 27.1087 26.4907 27.5327 26.1782 27.8452C25.8656 28.1578 25.4417 28.3334 24.9997 28.3334H21.6663V31.6667C21.6663 32.1087 21.4907 32.5327 21.1782 32.8452C20.8656 33.1578 20.4417 33.3334 19.9997 33.3334C19.5576 33.3334 19.1337 33.1578 18.8212 32.8452C18.5086 32.5327 18.333 32.1087 18.333 31.6667V28.3334H14.9997C14.5576 28.3334 14.1337 28.1578 13.8212 27.8452C13.5086 27.5327 13.333 27.1087 13.333 26.6667C13.333 26.2247 13.5086 25.8008 13.8212 25.4882C14.1337 25.1756 14.5576 25 14.9997 25H18.333V21.6667C18.333 21.2247 18.5086 20.8008 18.8212 20.4882C19.1337 20.1756 19.5576 20 19.9997 20C20.4417 20 20.8656 20.1756 21.1782 20.4882C21.4907 20.8008 21.6663 21.2247 21.6663 21.6667V25H24.9997C25.4417 25 25.8656 25.1756 26.1782 25.4882C26.4907 25.8008 26.6663 26.2247 26.6663 26.6667ZM36.6663 17.475V31.6667C36.6637 33.876 35.7849 35.9941 34.2226 37.5563C32.6604 39.1186 30.5423 39.9974 28.333 40H11.6663C9.45702 39.9974 7.33894 39.1186 5.77671 37.5563C4.21448 35.9941 3.33565 33.876 3.33301 31.6667V8.33337C3.33565 6.12405 4.21448 4.00597 5.77671 2.44374C7.33894 0.881508 9.45702 0.00268484 11.6663 3.84145e-05H19.1913C20.724 -0.00390646 22.2423 0.296018 23.6584 0.88247C25.0744 1.46892 26.3602 2.33027 27.4413 3.41671L33.248 9.2267C34.3351 10.3071 35.1969 11.5925 35.7837 13.0083C36.3705 14.4242 36.6705 15.9424 36.6663 17.475V17.475ZM25.0847 5.77337C24.5601 5.26531 23.9712 4.82824 23.333 4.47337V11.6667C23.333 12.1087 23.5086 12.5327 23.8212 12.8452C24.1337 13.1578 24.5576 13.3334 24.9997 13.3334H32.193C31.8379 12.6954 31.4003 12.1069 30.8913 11.5834L25.0847 5.77337ZM33.333 17.475C33.333 17.2 33.2797 16.9367 33.2547 16.6667H24.9997C23.6736 16.6667 22.4018 16.1399 21.4641 15.2022C20.5265 14.2646 19.9997 12.9928 19.9997 11.6667V3.41171C19.7297 3.38671 19.4647 3.33337 19.1913 3.33337H11.6663C10.3403 3.33337 9.06849 3.86016 8.13081 4.79784C7.19313 5.73552 6.66634 7.00729 6.66634 8.33337V31.6667C6.66634 32.9928 7.19313 34.2646 8.13081 35.2022C9.06849 36.1399 10.3403 36.6667 11.6663 36.6667H28.333C29.6591 36.6667 30.9309 36.1399 31.8685 35.2022C32.8062 34.2646 33.333 32.9928 33.333 31.6667V17.475Z" fill="#CE0037"/>
</g>
<defs>
<clipPath id="clip0_49_2522">
<rect width="40" height="40" fill="white"/>
</clipPath>
</defs>
</svg>
