<svg width="350" height="350" viewBox="0 0 350 350" fill="none" xmlns="http://www.w3.org/2000/svg">
<path d="M336.875 175C344.124 175 350.051 180.885 349.508 188.114C346.732 225.063 332.282 260.306 308.071 288.653C281.01 320.338 243.531 341.327 202.376 347.845C161.221 354.364 119.091 345.984 83.5628 324.212C48.0349 302.441 21.4412 268.707 8.56511 229.078C-4.31102 189.449 -2.62459 146.527 13.3211 108.03C29.2667 69.5342 58.4252 37.9908 95.5517 19.0739C132.678 0.156964 175.336 -4.89195 215.853 4.83526C252.102 13.5378 284.508 33.5565 308.472 61.8175C313.16 67.3462 311.824 75.5916 305.96 79.8523V79.8523C300.095 84.113 291.929 82.7682 287.168 77.3021C266.932 54.068 239.894 37.603 209.725 30.36C175.286 22.0918 139.026 26.3834 107.469 42.4628C75.9114 58.5421 51.1267 85.354 37.5729 118.076C24.0191 150.798 22.5856 187.282 33.5303 220.966C44.4751 254.651 67.0797 283.324 97.2783 301.83C127.477 320.336 163.288 327.459 198.27 321.919C233.251 316.378 265.108 298.537 288.11 271.605C308.261 248.013 320.457 218.8 323.172 188.108C323.81 180.888 329.626 175 336.875 175V175Z" fill="#CE0037"/>
</svg>
