<svg width="165" height="120" viewBox="0 0 165 120" fill="none" xmlns="http://www.w3.org/2000/svg">
<path d="M123.82 55.972C116.076 51.283 104.19 50.8667 88.2785 69.7382C80.5349 78.7391 73.4113 91.2949 64.6222 101.62C55.8336 111.945 45.6124 120 32.1778 120C15.1038 120 6.89585 107.293 3.14034 91.4463C1.29255 83.2695 0.28095 74.9335 0.120452 66.5618C-0.150564 58.2793 0.120452 50.4889 0.120452 44.3245C0.328354 40.2061 1.1099 36.1342 2.44347 32.2222C5.63798 23.6784 12.0249 16.6321 20.3205 12.4994C28.616 8.36745 38.2053 7.45479 47.1611 9.94638C53.735 11.9152 59.4607 15.9465 63.4507 21.4167C67.4405 26.8869 69.4718 33.4898 69.2296 40.2019C68.9586 47.1225 68.4552 54.3459 68.1455 60.3217C67.6887 64.5579 67.6887 68.8298 68.1455 73.0668C68.2598 73.6231 68.5343 74.1365 68.9368 74.5472C69.3392 74.9571 69.8529 75.2463 70.4177 75.3813C70.9825 75.5162 71.575 75.4912 72.1257 75.3084C72.6765 75.1263 73.1627 74.795 73.5275 74.3522C74.3405 73.5581 76.5469 71.1379 79.1407 68.2635C81.7353 65.3892 84.7934 62.0235 87.3105 59.3384C92.0084 54.2016 97.784 50.114 104.245 47.3539C110.705 44.593 117.699 43.2248 124.749 43.3412C147.747 43.3412 165.75 60.511 164.976 81.6513C164.201 102.792 150.07 120 121.923 120C98.4609 120 85.6839 105.591 92.072 87.2865C97.8797 70.6837 121.458 65.8426 131.331 68.9441C131.278 66.3168 130.538 63.746 129.184 61.4765C127.828 59.2063 125.903 57.3117 123.587 55.972M105.546 28.7051C89.6332 28.7051 77.0893 22.238 77.3986 14.3711C77.7085 6.505 90.7174 0 106.63 0C122.542 0 135.048 6.46715 134.777 14.3333C134.505 22.2001 121.497 28.7051 105.546 28.7051Z" fill="#CE0037"/>
</svg>
